<svg xmlns="http://www.w3.org/2000/svg" viewBox="0 0 32 32">
  <defs>
    <linearGradient id="hikariGrad" x1="0%" y1="0%" x2="100%" y2="100%">
      <stop offset="0%" stop-color="#5fe1ff"/>
      <stop offset="55%" stop-color="#b277ff"/>
      <stop offset="100%" stop-color="#ff5fc8"/>
    </linearGradient>
    <radialGradient id="hikariGlow" cx="50%" cy="50%" r="50%">
      <stop offset="0%" stop-color="#5fe1ff" stop-opacity="0.55"/>
      <stop offset="60%" stop-color="#5fe1ff" stop-opacity="0.08"/>
      <stop offset="100%" stop-color="#5fe1ff" stop-opacity="0"/>
    </radialGradient>
  </defs>
  <rect width="32" height="32" rx="6" fill="#0a0d18"/>
  <circle cx="16" cy="16" r="14" fill="url(#hikariGlow)"/>
  <path d="M16 2 C 17 11, 21 15, 30 16 C 21 17, 17 21, 16 30 C 15 21, 11 17, 2 16 C 11 15, 15 11, 16 2 Z" fill="url(#hikariGrad)"/>
  <path d="M16 9 C 16.5 13.5, 18.5 15.5, 23 16 C 18.5 16.5, 16.5 18.5, 16 23 C 15.5 18.5, 13.5 16.5, 9 16 C 13.5 15.5, 15.5 13.5, 16 9 Z" fill="rgba(255,255,255,0.88)"/>
</svg>
